<?xml version="1.0" standalone="no"?><!DOCTYPE svg PUBLIC "-//W3C//DTD SVG 1.1//EN" "http://www.w3.org/Graphics/SVG/1.1/DTD/svg11.dtd"><svg t="1586758718775" class="icon" viewBox="0 0 1024 1024" version="1.1" xmlns="http://www.w3.org/2000/svg" p-id="52826" xmlns:xlink="http://www.w3.org/1999/xlink" width="200" height="200"><defs><style type="text/css"></style></defs><path d="M1024 599.771429v-190.171429l-153.6-25.6c-7.314286-18.285714-14.628571-36.571429-25.6-51.2l84.114286-120.685714L789.942857 73.142857l-120.685714 87.771429c-18.285714-7.314286-36.571429-10.971429-51.2-18.285715L592.457143 0h-193.828572l-25.6 142.628571c-14.628571 3.657143-32.914286 10.971429-51.2 18.285715L201.142857 73.142857 65.828571 208.457143 153.6 329.142857c-7.314286 18.285714-10.971429 32.914286-14.628571 51.2l-138.971429 25.6v190.171429l138.971429 25.6c3.657143 18.285714 10.971429 36.571429 18.285714 51.2l-87.771429 120.685714 135.314286 135.314286L325.485714 841.142857c14.628571 10.971429 32.914286 18.285714 51.2 25.6l25.6 153.6h193.828572l25.6-153.6c18.285714-7.314286 36.571429-14.628571 51.2-25.6l120.685714 84.114286 135.314286-135.314286-87.771429-120.685714c10.971429-18.285714 21.942857-32.914286 29.257143-51.2l153.6-18.285714z m-526.628571 29.257142c-69.485714 0-128-58.514286-128-128s58.514286-128 128-128 128 58.514286 128 128c0 73.142857-58.514286 128-128 128" fill="#0B7AEE" p-id="52827"></path></svg>