<?xml version="1.0" standalone="no"?><!DOCTYPE svg PUBLIC "-//W3C//DTD SVG 1.1//EN" "http://www.w3.org/Graphics/SVG/1.1/DTD/svg11.dtd"><svg t="1586758565877" class="icon" viewBox="0 0 1025 1024" version="1.1" xmlns="http://www.w3.org/2000/svg" p-id="38339" xmlns:xlink="http://www.w3.org/1999/xlink" width="200.1953125" height="200"><defs><style type="text/css"></style></defs><path d="M513.564098 95.447415c106.040195 0 192.009366 80.777366 192.009365 180.430048 0 29.914537-7.795512 58.102634-21.516487 82.95961l155.407609 113.320586c19.237463-12.721951 42.664585-20.220878 67.980488-20.220879 65.320585 0 118.300098 49.763902 118.300098 111.172683 0 61.396293-52.979512 111.160195-118.300098 111.160196-65.348683 0-118.321951-49.763902-118.321951-111.160196 0-13.848976 2.716098-27.092293 7.64878-39.320975l-155.392-113.304976c-25.721756 21.575805-57.69678 36.723512-93.031024 42.789464v173.146536c69.098146 14.841756 120.635317 72.919415 120.635317 142.329756 0 80.646244-69.60078 146.048-155.423219 146.048-85.841171 0-155.420098-65.401756-155.420098-146.048 0-69.413463 51.540293-127.488 120.629073-142.329756v-173.143414c-35.346732-6.069073-67.303024-21.213659-93.02478-42.789464l-155.388878 113.304976a105.269073 105.269073 0 0 1 7.630048 39.324097c0 61.393171-52.96078 111.160195-118.303219 111.160195C54.353171 674.275902 1.373659 624.508878 1.373659 563.115707c0-61.40878 52.97639-111.175805 118.309463-111.175805 25.306537 0 48.73678 7.495805 67.977366 20.217757l155.388878-113.320586c-13.705366-24.853854-21.500878-53.041951-21.500878-82.956488-0.003122-99.655805 85.969171-180.433171 192.01561-180.43317z" fill="#0B7AEE" p-id="38340"></path></svg>