<?xml version="1.0" standalone="no"?><!DOCTYPE svg PUBLIC "-//W3C//DTD SVG 1.1//EN" "http://www.w3.org/Graphics/SVG/1.1/DTD/svg11.dtd">
<svg t="1586758745266" class="icon" viewBox="0 0 1254 1024" version="1.1" xmlns="http://www.w3.org/2000/svg" p-id="55753" xmlns:xlink="http://www.w3.org/1999/xlink" width="244.921875" height="200">
	<defs>
		<style type="text/css"></style>
	</defs>
	<path d="M888.47 93.365l-0.401-0.603c-6.425-7.027-13.653-12.85-20.68-17.87-73.287-41.361-145.77-27.507-215.242 41.362L523.244 245.158c-5.823 5.822-13.653 9.035-22.287 9.035-8.232 0-16.464-3.413-22.287-9.035-5.823-5.823-9.035-13.654-9.035-21.886s3.212-16.063 9.035-21.885l128.1-128.1c-30.318-21.485-67.263-33.13-106.014-33.13-49.594 0-95.573 19.074-129.506 53.81-34.334 34.334-54.01 81.518-54.01 129.707 0 49.593 19.074 95.573 53.81 129.506l257.405 257.405c0.2 0.2 0.401 0.402 1.405 0.402 0.402 0 1.205-0.201 1.406-0.402L888.67 353.38c71.279-71.278 71.279-187.934-0.2-260.015zM67.063 852.932s313.023-166.852 364.223-186.73c50.999-19.877 145.97-37.546 240.94 32.327s221.064 38.55 241.946 38.55c20.882 0 28.11 15.46 27.106 25.098-1.406 13.453-14.858 35.138-52.204 44.775-94.57 24.897-181.51-5.823-219.056-15.46-7.228-1.807-17.669 32.125 23.09 44.574 48.791 15.059 203.395 49.393 362.416-66.058 107.821-78.105 163.64-0.2 131.313 33.33-65.054 67.865-251.181 192.552-409.4 186.73-174.681-6.426-278.889-51.2-330.29-51.2-46.983 0.2-229.697 26.302-268.247 26.302S44.976 874.817 67.062 852.932z" fill="#0B7AEE" p-id="55754"></path>
</svg>