<?xml version="1.0" encoding="utf-8"?>
<!-- Generator: Adobe Illustrator 22.0.0, SVG Export Plug-In . SVG Version: 6.00 Build 0)  -->
<svg version="1.1" id="图层_1" xmlns="http://www.w3.org/2000/svg" xmlns:xlink="http://www.w3.org/1999/xlink" x="0px" y="0px"
	 viewBox="0 0 154.3 177.3" style="enable-background:new 0 0 154.3 177.3;" xml:space="preserve">
<style type="text/css">
	.st0{fill:#FFFFFF;}
</style>
<path class="st0" d="M76.5,0.7c-42.5,0-76.9,33-76.9,73.7c0,46.7,66.4,98.2,66.4,98.2c5.7,5,15.1,5,20.8,0c0,0,66.4-51.6,66.4-98.2
	C153.3,33.7,118.9,0.7,76.5,0.7z M76.5,110.4c-18.2,0-32.9-14.7-32.9-32.9c0-11.5,5.9-21.5,14.8-27.4c5.2-3.5,11.4-5.6,18.2-5.6
	c6.7,0,13,2.1,18.2,5.6c8.9,5.9,14.8,16,14.8,27.4C109.4,95.7,94.7,110.4,76.5,110.4z"/>
</svg>
