<?xml version="1.0" standalone="no"?><!DOCTYPE svg PUBLIC "-//W3C//DTD SVG 1.1//EN" "http://www.w3.org/Graphics/SVG/1.1/DTD/svg11.dtd"><svg t="1586756989140" class="icon" viewBox="0 0 1031 1024" version="1.1" xmlns="http://www.w3.org/2000/svg" p-id="21987" xmlns:xlink="http://www.w3.org/1999/xlink" width="201.3671875" height="200"><defs><style type="text/css"></style></defs><path d="M775.908525 1015.269821c-9.545802 0-19.685698-0.483332-30.429759-1.55069-55.71405-5.538176-117.298567-26.099913-183.041751-61.101185-80.16258-42.684233-167.34354-107.370128-259.106081-192.275401-406.320868-375.911247-288.659802-603.590697-283.453917-613.09622 0.231596-0.432985 0.483332-0.8559 0.735067-1.278816C58.382444 84.584381 148.181451-14.840982 245.220363 1.86417c28.999903 4.994428 55.643565 18.698896 81.451465 41.898819 21.417637 19.252714 39.1398 42.321734 54.072736 62.430347 20.602015 27.741227 34.930786 53.075865 43.801938 77.44384 12.465931 34.215858 14.157592 66.931374 5.024636 97.210092-8.337472 27.660672-22.968326 54.978983-46.037347 85.992769-1.268746 1.7118-2.698602 3.322906-7.964904 9.213511-2.003813 2.235409-5.185747 5.81005-8.317333 9.374622 70.153586 140.357518 214.740257 230.871453 267.816121 260.525868 19.695768-21.256526 44.043603-38.525566 70.475807-49.722751 38.888065-16.473556 78.551474-18.557924 114.680521-6.051716 67.575816 23.401311 131.858936 72.167468 171.975468 130.449218 20.007919 29.080459 26.301301 62.057779 18.688827 98.015645-5.558315 26.281162-18.708965 53.881418-39.089453 82.025421-30.993647 42.805066-69.267477 73.879268-75.258777 78.63203-7.783655 6.716297-46.097763 35.967936-120.631543 35.967936z m82.267087-79.971262c-0.010069 0-0.010069 0 0 0-0.010069 0-0.010069 0 0 0z m-521.394095-603.439655l-0.080556 0.110763c0.030208-0.040278 0.050347-0.080555 0.080556-0.110763z" p-id="21988" fill="#ffffff"></path></svg>