<?xml version="1.0" encoding="utf-8"?>
<!-- Generator: Adobe Illustrator 22.0.0, SVG Export Plug-In . SVG Version: 6.00 Build 0)  -->
<svg version="1.1" id="图层_1" xmlns="http://www.w3.org/2000/svg" xmlns:xlink="http://www.w3.org/1999/xlink" x="0px" y="0px"
	 viewBox="0 0 174.5 174.7" style="enable-background:new 0 0 174.5 174.7;" xml:space="preserve">
<style type="text/css">
	.st0{fill:#FFFFFF;}
</style>
<path class="st0" d="M141.1,0H33.7C15.1,0,0,15.1,0,33.7V141c0,18.6,15.1,33.7,33.7,33.7h107.4c18.6,0,33.7-15.1,33.7-33.7V33.7
	C174.8,15.1,159.7,0,141.1,0L141.1,0z M105.1,91.6c0,2.2-2.1,4.3-5.4,4.3c-2.1,0-4.3-2.1-4.3-4.3c0-2.1,2.2-4.3,4.3-4.3
	C103,87.4,105.1,89.5,105.1,91.6z M79.3,61.5c0-3.2,3.2-5.4,6.4-5.4c3.2,0,5.4,2.1,5.4,5.4c0,3.2-2.1,5.4-5.4,5.4
	C82.6,66.9,79.3,64.8,79.3,61.5z M61.1,61.5c0,3.2-2.1,5.4-5.4,5.4c-3.2,0-6.5-2.2-6.5-5.4c0-3.2,3.3-5.4,6.5-5.4
	C58.9,56.2,61.1,58.3,61.1,61.5z M128.8,91.7c0,2.2-2.1,4.3-5.4,4.3c-2.1,0-4.3-2.1-4.3-4.3c0-2.1,2.2-4.3,4.3-4.3
	C126.6,87.4,128.8,89.5,128.8,91.7z M69.7,111L69.7,111L69.7,111c-5.4,0-9.7-1.1-15-2.1l-15,7.5l4.3-12.9
	c-10.8-7.5-17.2-17.2-17.2-29c0-20.4,19.4-36.5,43-36.5c21.1,0,39.6,12.9,43.4,30.2c-1.4-0.2-2.8-0.2-4.1-0.2
	c-20.4,0-36.5,15.2-36.5,34c0,3.1,0.5,6.2,1.3,9C72.3,110.9,71,111,69.7,111L69.7,111z M133,126.1l3.2,10.7l-11.8-6.5
	c-4.3,1.1-8.6,2.1-12.9,2.1c-20.4,0-36.5-14-36.5-31.2c0-17.2,16.1-31.2,36.5-31.2c19.3,0,36.5,14,36.5,31.2
	C148.1,111,141.7,119.6,133,126.1z"/>
</svg>
